<svg xmlns="http://www.w3.org/2000/svg" viewBox="34.47 36.71 831.15 923.29" width="1400" height="1555">
<rect x="100%" y="100%" width="0" height="0"/>
<rect x="34.47" y="36.709999999999994" width="831.15" height="923.29" fill="#0b1220"/>
<text x="46.47" y="54.709999999999994" fill="#94a3b8" font-size="12" font-family="monospace">CP2 physical schematic (after drawing pass)</text>
<path d="M 612.06 132.53 L 612.06 219.09" fill="none" stroke="#38bdf8" stroke-width="5.33" stroke-linecap="round" stroke-linejoin="round"><title>P1000</title></path>
<text x="612.06" y="175.81" fill="#e2e8f0" font-size="10" font-family="monospace" text-anchor="middle" dominant-baseline="middle" stroke="#0a0f14" stroke-width="3" paint-order="stroke">P1000</text>
<path d="M 609.02 208.79 L 612.06 215.09 L 615.10 208.79" fill="none" stroke="#94a3b8" stroke-width="1.2"/>
<path d="M 612.06 305.65 L 612.06 351.69" fill="none" stroke="#38bdf8" stroke-width="6.67" stroke-linecap="round" stroke-linejoin="round"><title>P1002</title></path>
<text x="612.06" y="328.67" fill="#e2e8f0" font-size="10" font-family="monospace" text-anchor="middle" dominant-baseline="middle" stroke="#0a0f14" stroke-width="3" paint-order="stroke">P1002</text>
<path d="M 609.02 341.39 L 612.06 347.69 L 615.10 341.39" fill="none" stroke="#94a3b8" stroke-width="1.2"/>
<path d="M 617.28 132.53 L 617.28 225.53" fill="none" stroke="#38bdf8" stroke-width="5.33" stroke-linecap="round" stroke-linejoin="round"><title>P1004</title></path>
<text x="617.28" y="179.03" fill="#e2e8f0" font-size="10" font-family="monospace" text-anchor="middle" dominant-baseline="middle" stroke="#0a0f14" stroke-width="3" paint-order="stroke">P1004</text>
<path d="M 614.24 215.23 L 617.28 221.53 L 620.32 215.23" fill="none" stroke="#94a3b8" stroke-width="1.2"/>
<path d="M 717.96 132.53 L 717.96 219.09" fill="none" stroke="#38bdf8" stroke-width="5.33" stroke-linecap="round" stroke-linejoin="round"><title>P1006</title></path>
<text x="717.96" y="175.81" fill="#e2e8f0" font-size="10" font-family="monospace" text-anchor="middle" dominant-baseline="middle" stroke="#0a0f14" stroke-width="3" paint-order="stroke">P1006</text>
<path d="M 714.92 208.79 L 717.96 215.09 L 721.00 208.79" fill="none" stroke="#94a3b8" stroke-width="1.2"/>
<path d="M 717.96 305.65 L 717.96 351.69" fill="none" stroke="#38bdf8" stroke-width="6.67" stroke-linecap="round" stroke-linejoin="round"><title>P1008</title></path>
<text x="717.96" y="328.67" fill="#e2e8f0" font-size="10" font-family="monospace" text-anchor="middle" dominant-baseline="middle" stroke="#0a0f14" stroke-width="3" paint-order="stroke">P1008</text>
<path d="M 714.92 341.39 L 717.96 347.69 L 721.00 341.39" fill="none" stroke="#94a3b8" stroke-width="1.2"/>
<path d="M 723.18 132.53 L 723.18 225.53" fill="none" stroke="#38bdf8" stroke-width="5.33" stroke-linecap="round" stroke-linejoin="round"><title>P1010</title></path>
<text x="723.18" y="179.03" fill="#e2e8f0" font-size="10" font-family="monospace" text-anchor="middle" dominant-baseline="middle" stroke="#0a0f14" stroke-width="3" paint-order="stroke">P1010</text>
<path d="M 720.14 215.23 L 723.18 221.53 L 726.22 215.23" fill="none" stroke="#94a3b8" stroke-width="1.2"/>
<path d="M 608.38 353.07 L 823.86 353.07" fill="none" stroke="#38bdf8" stroke-width="6.67" stroke-linecap="round" stroke-linejoin="round"><title>P1014</title></path>
<text x="716.12" y="353.07" fill="#e2e8f0" font-size="10" font-family="monospace" text-anchor="middle" dominant-baseline="middle" stroke="#0a0f14" stroke-width="3" paint-order="stroke">P1014</text>
<path d="M 813.56 356.11 L 819.86 353.07 L 813.56 350.03" fill="none" stroke="#94a3b8" stroke-width="1.2"/>
<path d="M 825.62 189.62 L 825.62 91.09" fill="none" stroke="#67e8f9" stroke-width="7.67" stroke-linecap="round" stroke-linejoin="round"><title>P1018</title></path>
<text x="825.62" y="140.36" fill="#e2e8f0" font-size="10" font-family="monospace" text-anchor="middle" dominant-baseline="middle" stroke="#0a0f14" stroke-width="3" paint-order="stroke">P1018</text>
<path d="M 828.66 101.39 L 825.62 95.09 L 822.58 101.39" fill="none" stroke="#94a3b8" stroke-width="1.2"/>
<path d="M 695.47 108.28 L 695.47 107.66 A 3.38 3.38 0 0 0 698.85 104.29 L 699.31 104.29" fill="none" stroke="#c4b5fd" stroke-width="2.50" stroke-linecap="round" stroke-linejoin="round"><title>P126</title></path>
<text x="697.39" y="106.28" fill="#e2e8f0" font-size="10" font-family="monospace" text-anchor="middle" dominant-baseline="middle" stroke="#0a0f14" stroke-width="3" paint-order="stroke">P126</text>
<path d="M 694.36 113.82 L 696.54 107.17 L 689.97 109.60" fill="none" stroke="#94a3b8" stroke-width="1.2"/>
<path d="M 709.52 89.55 L 710.0 89.55 A 3.38 3.38 0 0 1 713.37 86.18 L 713.37 85.03" fill="none" stroke="#c4b5fd" stroke-width="2.50" stroke-linecap="round" stroke-linejoin="round"><title>P134</title></path>
<text x="711.44" y="87.29" fill="#e2e8f0" font-size="10" font-family="monospace" text-anchor="middle" dominant-baseline="middle" stroke="#0a0f14" stroke-width="3" paint-order="stroke">P134</text>
<path d="M 709.01 94.85 L 710.78 88.08 L 704.37 90.90" fill="none" stroke="#94a3b8" stroke-width="1.2"/>
<path d="M 635.62 89.55 L 616.97 89.55" fill="none" stroke="#38bdf8" stroke-width="4.00" stroke-linecap="round" stroke-linejoin="round"><title>P136</title></path>
<text x="626.30" y="89.55" fill="#e2e8f0" font-size="10" font-family="monospace" text-anchor="middle" dominant-baseline="middle" stroke="#0a0f14" stroke-width="3" paint-order="stroke">P136</text>
<path d="M 627.27 86.51 L 620.97 89.55 L 627.27 92.59" fill="none" stroke="#94a3b8" stroke-width="1.2"/>
<path d="M 709.52 89.55 L 635.62 89.55" fill="none" stroke="#38bdf8" stroke-width="4.00" stroke-linecap="round" stroke-linejoin="round"><title>P136A</title></path>
<text x="672.57" y="89.55" fill="#e2e8f0" font-size="10" font-family="monospace" text-anchor="middle" dominant-baseline="middle" stroke="#0a0f14" stroke-width="3" paint-order="stroke">P136A</text>
<path d="M 645.92 86.51 L 639.62 89.55 L 645.92 92.59" fill="none" stroke="#94a3b8" stroke-width="1.2"/>
<path d="M 616.97 89.55 L 611.45 89.55" fill="none" stroke="#67e8f9" stroke-width="4.00" stroke-linecap="round" stroke-linejoin="round"><title>P138</title></path>
<text x="614.21" y="89.55" fill="#e2e8f0" font-size="10" font-family="monospace" text-anchor="middle" dominant-baseline="middle" stroke="#0a0f14" stroke-width="3" paint-order="stroke">P138</text>
<path d="M 621.75 86.51 L 615.45 89.55 L 621.75 92.59" fill="none" stroke="#94a3b8" stroke-width="1.2"/>
<path d="M 791.4 108.2 L 791.4 107.74 A 3.38 3.38 0 0 0 794.77 104.36 L 795.23 104.36" fill="none" stroke="#c4b5fd" stroke-width="2.50" stroke-linecap="round" stroke-linejoin="round"><title>P142</title></path>
<text x="793.32" y="106.28" fill="#e2e8f0" font-size="10" font-family="monospace" text-anchor="middle" dominant-baseline="middle" stroke="#0a0f14" stroke-width="3" paint-order="stroke">P142</text>
<path d="M 790.11 113.81 L 792.41 107.19 L 785.80 109.50" fill="none" stroke="#94a3b8" stroke-width="1.2"/>
<path d="M 805.9 89.17 L 806.36 89.17 A 3.38 3.38 0 0 0 809.74 92.55 L 809.74 94.39" fill="none" stroke="#c4b5fd" stroke-width="2.50" stroke-linecap="round" stroke-linejoin="round"><title>P148</title></path>
<text x="807.82" y="91.78" fill="#e2e8f0" font-size="10" font-family="monospace" text-anchor="middle" dominant-baseline="middle" stroke="#0a0f14" stroke-width="3" paint-order="stroke">P148</text>
<path d="M 801.18 87.89 L 807.37 91.17 L 806.09 84.29" fill="none" stroke="#94a3b8" stroke-width="1.2"/>
<path d="M 745.58 89.17 L 726.71 89.17" fill="none" stroke="#38bdf8" stroke-width="4.00" stroke-linecap="round" stroke-linejoin="round"><title>P150</title></path>
<text x="736.14" y="89.17" fill="#e2e8f0" font-size="10" font-family="monospace" text-anchor="middle" dominant-baseline="middle" stroke="#0a0f14" stroke-width="3" paint-order="stroke">P150</text>
<path d="M 737.01 86.13 L 730.71 89.17 L 737.01 92.21" fill="none" stroke="#94a3b8" stroke-width="1.2"/>
<path d="M 805.9 89.17 L 745.58 89.17" fill="none" stroke="#38bdf8" stroke-width="4.00" stroke-linecap="round" stroke-linejoin="round"><title>P150A</title></path>
<text x="775.74" y="89.17" fill="#e2e8f0" font-size="10" font-family="monospace" text-anchor="middle" dominant-baseline="middle" stroke="#0a0f14" stroke-width="3" paint-order="stroke">P150A</text>
<path d="M 755.88 86.13 L 749.58 89.17 L 755.88 92.21" fill="none" stroke="#94a3b8" stroke-width="1.2"/>
<path d="M 476.09 81.32 L 466.88 81.32" fill="none" stroke="#38bdf8" stroke-width="10.00" stroke-linecap="round" stroke-linejoin="round"><title>P215</title></path>
<text x="471.49" y="81.32" fill="#e2e8f0" font-size="10" font-family="monospace" text-anchor="middle" dominant-baseline="middle" stroke="#0a0f14" stroke-width="3" paint-order="stroke">P215</text>
<path d="M 477.18 78.28 L 470.88 81.32 L 477.18 84.36" fill="none" stroke="#94a3b8" stroke-width="1.2"/>
<path d="M 663.45 80.09 A 3.38 3.38 0 0 1 666.83 76.71" fill="none" stroke="#c4b5fd" stroke-width="2.50" stroke-linecap="round" stroke-linejoin="round"><title>P226</title></path>
<text x="665.14" y="78.40" fill="#e2e8f0" font-size="10" font-family="monospace" text-anchor="middle" dominant-baseline="middle" stroke="#0a0f14" stroke-width="3" paint-order="stroke">P226</text>
<path d="M 661.70 86.15 L 664.00 79.54 L 657.39 81.84" fill="none" stroke="#94a3b8" stroke-width="1.2"/>
<path d="M 663.33 80.0 L 543.0 80.0" fill="none" stroke="#38bdf8" stroke-width="4.00" stroke-linecap="round" stroke-linejoin="round"><title>P229</title></path>
<text x="603.16" y="80.00" fill="#e2e8f0" font-size="10" font-family="monospace" text-anchor="middle" dominant-baseline="middle" stroke="#0a0f14" stroke-width="3" paint-order="stroke">P229</text>
<path d="M 553.30 76.96 L 547.00 80.00 L 553.30 83.04" fill="none" stroke="#94a3b8" stroke-width="1.2"/>
<path d="M 104.4 920.0 L 80.0 920.0" fill="none" stroke="#38bdf8" stroke-width="4.00" stroke-linecap="round" stroke-linejoin="round"><title>P230</title></path>
<text x="92.20" y="920.00" fill="#e2e8f0" font-size="10" font-family="monospace" text-anchor="middle" dominant-baseline="middle" stroke="#0a0f14" stroke-width="3" paint-order="stroke">P230</text>
<path d="M 90.30 916.96 L 84.00 920.00 L 90.30 923.04" fill="none" stroke="#94a3b8" stroke-width="1.2"/>
<path d="M 80.0 920.0 L 74.47 920.0" fill="none" stroke="#67e8f9" stroke-width="4.00" stroke-linecap="round" stroke-linejoin="round"><title>P232</title></path>
<text x="77.23" y="920.00" fill="#e2e8f0" font-size="10" font-family="monospace" text-anchor="middle" dominant-baseline="middle" stroke="#0a0f14" stroke-width="3" paint-order="stroke">P232</text>
<path d="M 84.77 916.96 L 78.47 920.00 L 84.77 923.04" fill="none" stroke="#94a3b8" stroke-width="1.2"/>
<path d="M 765.38 86.41 L 765.84 86.41 A 3.38 3.38 0 0 0 769.22 89.78 L 769.22 90.25" fill="none" stroke="#c4b5fd" stroke-width="2.50" stroke-linecap="round" stroke-linejoin="round"><title>P238</title></path>
<text x="767.30" y="88.33" fill="#e2e8f0" font-size="10" font-family="monospace" text-anchor="middle" dominant-baseline="middle" stroke="#0a0f14" stroke-width="3" paint-order="stroke">P238</text>
<path d="M 759.78 85.12 L 766.39 87.42 L 764.09 80.81" fill="none" stroke="#94a3b8" stroke-width="1.2"/>
<path d="M 745.12 86.41 L 726.71 86.41" fill="none" stroke="#38bdf8" stroke-width="4.00" stroke-linecap="round" stroke-linejoin="round"><title>P242</title></path>
<text x="735.91" y="86.41" fill="#e2e8f0" font-size="10" font-family="monospace" text-anchor="middle" dominant-baseline="middle" stroke="#0a0f14" stroke-width="3" paint-order="stroke">P242</text>
<path d="M 737.01 83.37 L 730.71 86.41 L 737.01 89.45" fill="none" stroke="#94a3b8" stroke-width="1.2"/>
<path d="M 637.38 145.11 L 637.38 117.49" fill="none" stroke="#38bdf8" stroke-width="4.00" stroke-linecap="round" stroke-linejoin="round"><title>P312</title></path>
<text x="637.38" y="131.30" fill="#e2e8f0" font-size="10" font-family="monospace" text-anchor="middle" dominant-baseline="middle" stroke="#0a0f14" stroke-width="3" paint-order="stroke">P312</text>
<path d="M 640.42 127.79 L 637.38 121.49 L 634.34 127.79" fill="none" stroke="#94a3b8" stroke-width="1.2"/>
<path d="M 637.38 117.49 L 637.38 94.47" fill="none" stroke="#67e8f9" stroke-width="4.00" stroke-linecap="round" stroke-linejoin="round"><title>P314</title></path>
<text x="637.38" y="105.98" fill="#e2e8f0" font-size="10" font-family="monospace" text-anchor="middle" dominant-baseline="middle" stroke="#0a0f14" stroke-width="3" paint-order="stroke">P314</text>
<path d="M 640.42 104.77 L 637.38 98.47 L 634.34 104.77" fill="none" stroke="#94a3b8" stroke-width="1.2"/>
<path d="M 633.24 89.55 L 634.6 89.79 A 3.38 3.38 0 0 1 638.51 87.06 L 638.75 85.7" fill="none" stroke="#c4b5fd" stroke-width="2.50" stroke-linecap="round" stroke-linejoin="round"><title>P316</title></path>
<text x="636.00" y="87.62" fill="#e2e8f0" font-size="10" font-family="monospace" text-anchor="middle" dominant-baseline="middle" stroke="#0a0f14" stroke-width="3" paint-order="stroke">P316</text>
<path d="M 632.05 94.10 L 635.47 87.99 L 628.56 89.11" fill="none" stroke="#94a3b8" stroke-width="1.2"/>
<path d="M 747.89 143.12 L 747.89 115.49" fill="none" stroke="#38bdf8" stroke-width="4.00" stroke-linecap="round" stroke-linejoin="round"><title>P320</title></path>
<text x="747.89" y="129.31" fill="#e2e8f0" font-size="10" font-family="monospace" text-anchor="middle" dominant-baseline="middle" stroke="#0a0f14" stroke-width="3" paint-order="stroke">P320</text>
<path d="M 750.93 125.79 L 747.89 119.49 L 744.85 125.79" fill="none" stroke="#94a3b8" stroke-width="1.2"/>
<path d="M 747.89 115.49 L 747.89 94.31" fill="none" stroke="#38bdf8" stroke-width="4.00" stroke-linecap="round" stroke-linejoin="round"><title>P322</title></path>
<text x="747.89" y="104.90" fill="#e2e8f0" font-size="10" font-family="monospace" text-anchor="middle" dominant-baseline="middle" stroke="#0a0f14" stroke-width="3" paint-order="stroke">P322</text>
<path d="M 750.93 104.61 L 747.89 98.31 L 744.85 104.61" fill="none" stroke="#94a3b8" stroke-width="1.2"/>
<path d="M 743.74 89.17 L 745.1 89.41 A 3.38 3.38 0 0 1 749.01 86.67 L 749.29 85.08" fill="none" stroke="#c4b5fd" stroke-width="2.50" stroke-linecap="round" stroke-linejoin="round"><title>P324</title></path>
<text x="746.51" y="87.12" fill="#e2e8f0" font-size="10" font-family="monospace" text-anchor="middle" dominant-baseline="middle" stroke="#0a0f14" stroke-width="3" paint-order="stroke">P324</text>
<path d="M 742.80 93.64 L 746.07 87.45 L 739.19 88.74" fill="none" stroke="#94a3b8" stroke-width="1.2"/>
<path d="M 726.71 87.79 L 715.5 87.79" fill="none" stroke="#38bdf8" stroke-width="10.00" stroke-linecap="round" stroke-linejoin="round"><title>P400</title></path>
<text x="721.11" y="87.79" fill="#e2e8f0" font-size="10" font-family="monospace" text-anchor="middle" dominant-baseline="middle" stroke="#0a0f14" stroke-width="3" paint-order="stroke">P400</text>
<path d="M 725.80 84.75 L 719.50 87.79 L 725.80 90.83" fill="none" stroke="#94a3b8" stroke-width="1.2"/>
<path d="M 715.5 86.41 L 616.97 86.41" fill="none" stroke="#38bdf8" stroke-width="4.00" stroke-linecap="round" stroke-linejoin="round"><title>P402</title></path>
<text x="666.24" y="86.41" fill="#e2e8f0" font-size="10" font-family="monospace" text-anchor="middle" dominant-baseline="middle" stroke="#0a0f14" stroke-width="3" paint-order="stroke">P402</text>
<path d="M 627.27 83.37 L 620.97 86.41 L 627.27 89.45" fill="none" stroke="#94a3b8" stroke-width="1.2"/>
<path d="M 616.97 86.41 L 611.45 86.41" fill="none" stroke="#67e8f9" stroke-width="4.00" stroke-linecap="round" stroke-linejoin="round"><title>P404</title></path>
<text x="614.21" y="86.41" fill="#e2e8f0" font-size="10" font-family="monospace" text-anchor="middle" dominant-baseline="middle" stroke="#0a0f14" stroke-width="3" paint-order="stroke">P404</text>
<path d="M 621.75 83.37 L 615.45 86.41 L 621.75 89.45" fill="none" stroke="#94a3b8" stroke-width="1.2"/>
<path d="M 611.28 87.71 L 597.46 87.71" fill="none" stroke="#38bdf8" stroke-width="12.00" stroke-linecap="round" stroke-linejoin="round"><title>P406</title></path>
<text x="604.37" y="87.71" fill="#e2e8f0" font-size="10" font-family="monospace" text-anchor="middle" dominant-baseline="middle" stroke="#0a0f14" stroke-width="3" paint-order="stroke">P406</text>
<path d="M 607.76 84.67 L 601.46 87.71 L 607.76 90.75" fill="none" stroke="#94a3b8" stroke-width="1.2"/>
<path d="M 597.68 86.44 L 387.42 86.44" fill="none" stroke="#38bdf8" stroke-width="4.00" stroke-linecap="round" stroke-linejoin="round"><title>P408</title></path>
<text x="492.55" y="86.44" fill="#e2e8f0" font-size="10" font-family="monospace" text-anchor="middle" dominant-baseline="middle" stroke="#0a0f14" stroke-width="3" paint-order="stroke">P408</text>
<path d="M 397.72 83.40 L 391.42 86.44 L 397.72 89.48" fill="none" stroke="#94a3b8" stroke-width="1.2"/>
</svg>